<?xml version="1.0" encoding="UTF-8"?>
<svg id="Layer_1" data-name="Layer 1" xmlns="http://www.w3.org/2000/svg" viewBox="0 0 318.22 288.95">
  <defs>
    <style>
      .cls-1 {
        fill: #f976c6;
      }
    </style>
  </defs>
  <g>
    <path class="cls-1" d="M60.54,75.1c-6.02-1.87-20.29,1.93-14.6,10.79,2.21,3.45,6.98,5.63,10.5,7.36,2.42,1.19,4.92,2.25,7.25,3.61.37.22,2.39,1.14,2.46,1.61.21,1.5-3.71,2-4.46,2.11l3.47.45c-1.65-1.14,4.88-10.61,5.45-12.08,1.47-3.75,1.76-7.76.18-11.52-2.21-5.26-10.93-2.95-8.68,2.39,3.37,8.01-8.01,14.34-5.88,23.09,1.93,7.94,10.56,7.56,15.85,2.87s3.86-11.38-1.43-15.19c-3.41-2.45-7.4-3.93-11.11-5.84-.9-.47-5.15-3.72-5.83-3.62-1.15,2.75-.74,3.49,1.25,2.22,1.11-.19,2.18-.05,3.2.42,5.54,1.72,7.91-6.96,2.39-8.68h0Z"/>
    <path class="cls-1" d="M81.49,73.69c-6.98,2.25-11.73,8.57-10.74,16.06,1.06,7.97,8.6,13.21,16,14.93s15.07-2.99,12.03-11.08c-1.09-2.88-3.42-5.96-6.73-6.15-4.04-.24-5.46,3.2-7.22,6.05-3.05,4.94,4.74,9.47,7.77,4.54.93-1.52,2.28-2.4-.63-1.94s-.83.25-2.69-.1c-2.31-.43-4.65-1.53-6.55-2.91-4.18-3.03-4.2-9.01,1.15-10.73s3.14-10.46-2.39-8.68h0Z"/>
    <path class="cls-1" d="M104.31,77.83l2.84-1.21c.96-.41,1.8-1.73,2.07-2.69.3-1.08.16-2.51-.45-3.47s-1.54-1.81-2.69-2.07l-1.2-.16c-.81,0-1.57.21-2.27.61l-2.84,1.21c-.96.41-1.8,1.73-2.07,2.69-.3,1.08-.16,2.51.45,3.47s1.54,1.81,2.69,2.07l1.2.16c.81,0,1.57-.21,2.27-.61h0Z"/>
    <path class="cls-1" d="M95.31,74.4c-.25,4.17-1.2,8.01,2.55,10.74,1.27.92,3.26.75,4.54,0,2.23-1.3,4.27-.68,5.16,2.25.43.75.39,1.54-.13,2.35-1.12,1.43-1.18,1.94-.17,1.54.91-.17.7-.24-.62-.22-.77-.13-1.55-.16-2.33-.11-5.79.07-5.8,9.07,0,9,3.87-.05,7.45.52,9.83-3.29,2.21-3.54,3.44-8.36,1.98-12.36-1.23-3.36-4.23-6.52-7.41-8.1-3.88-1.92-7.36-.86-10.85,1.17h4.54l-.54-.4,2.07,2.69c-.23-1.56.28-3.67.38-5.26.35-5.78-8.65-5.76-9,0h0Z"/>
    <path class="cls-1" d="M122.13,84.93l5.87-.68c2.33-.27,4.62-1.88,4.5-4.5-.1-2.21-2-4.79-4.5-4.5l-5.87.68c-2.33.27-4.62,1.88-4.5,4.5.1,2.21,2,4.79,4.5,4.5h0Z"/>
    <path class="cls-1" d="M136.48,67.57l.23,7.63c.07,2.46-.01,4.9,1.87,6.77,1.63,1.61,3.95,1.77,6.09,1.6,2.67-.21,5.34-.44,8.01-.66,2.42-.2,4.5-1.93,4.5-4.5,0-2.28-2.06-4.7-4.5-4.5-1.78.15-3.56.29-5.34.44-.89.07-1.78.15-2.67.22l-.89.07c-1.02-.03-.74.17.85.58l1.16,1.99c-.02.38-.03.3-.03-.22l-.04-1.35-.08-2.69-.16-5.39c-.17-5.78-9.18-5.8-9,0h0Z"/>
    <path class="cls-1" d="M149.87,67.74c-1.04,7.28-.91,14.33.53,21.55,1.13,5.68,9.81,3.27,8.68-2.39s-1.32-11.19-.53-16.77-7.86-8.11-8.68-2.39h0Z"/>
    <path class="cls-1" d="M158.85,65.9c.2,5.12.38,12.24,6.81,12.83,6,.55,12.55-.64,18.46-1.6s3.28-9.6-2.39-8.68c-3.57.58-7.15.96-10.76,1.15-.47.02-4.89.37-4.95.14,2.19,1.36,2.86,1.03,2.02-.99-.1-.95-.16-1.9-.18-2.86-.23-5.77-9.23-5.8-9,0h0Z"/>
    <path class="cls-1" d="M177.41,63.44c.18,8.92,1.91,17.62,3.78,26.31,1.22,5.66,9.9,3.26,8.68-2.39-1.71-7.92-3.3-15.79-3.46-23.92-.12-5.78-9.12-5.8-9,0h0Z"/>
    <path class="cls-1" d="M192.97,63.96c1.12,8.29,2.72,16.48,4.8,24.59,1.44,5.61,10.12,3.23,8.68-2.39-2.08-8.11-3.68-16.29-4.8-24.59-.77-5.71-9.45-3.28-8.68,2.39h0Z"/>
    <path class="cls-1" d="M211.61,79.11c1.95-.11,3.88-.04,5.81.21,2.34.3,4.6-2.29,4.5-4.5-.12-2.7-1.99-4.17-4.5-4.5-1.93-.25-3.86-.32-5.81-.21-2.35.14-4.61,1.97-4.5,4.5.1,2.32,1.98,4.65,4.5,4.5h0Z"/>
    <path class="cls-1" d="M236.11,68.67c-1.21,2.16-1.4,2.27-.58.33-.56.56-.94,1.22-1.16,1.99-.24.93-.17,2.03.14,2.94.97,2.9,3.51,3.46,6.19,3.88.77.03,1.53.14,2.27.34l-.6-.83c.37,1.51-.03,2.8-1.27,3.49-.88.48-7.56.62-7.64.48-2.85-5.04-10.63-.51-7.77,4.54,2.17,3.84,6.32,4.3,10.36,4.32,4.53.02,9.68-.25,12.84-3.94,2.48-2.9,3.13-7.92,2.05-11.51-.56-1.84-1.91-3.47-3.6-4.41-1.9-1.06-4.52-.5-6.22-1.45l2.07,2.69-.14-.55-1.16,4.38c3.98-4.32,1.86-10.65-3-13.29-5.43-2.95-11.29.7-11.78,6.6s8.52,5.74,9,0h0Z"/>
    <path class="cls-1" d="M258.21,63.49c-.91,7.06,1.37,14.3,1.73,21.37l8.84-1.2c-.77-4.38-1.53-8.75-2.3-13.13-.59-3.36-.54-8.24-2.42-11.13-1.42-2.19-3.85-2.67-6.16-1.61-1.39.64-2.55,2.01-3.68,3.02-4.33,3.87,2.05,10.21,6.36,6.36.6-.56,1.22-1.1,1.86-1.62l-6.16-1.61c.64.99.53,3.34.75,4.61.36,2.04.72,4.08,1.07,6.13.66,3.79,1.33,7.59,1.99,11.38.87,4.99,9.09,3.84,8.84-1.2-.35-7.04-2.63-14.36-1.73-21.37.74-5.73-8.27-5.67-9,0h0Z"/>
    <path class="cls-1" d="M282,66.4c-.19.44,1.24,3.09,1.3,3.34.44,1.73.55,3.66-.6,5.05-1.58,1.9-5.89,2.46-8.12,3.37-4.37,1.78-4.3,8.95,1.2,8.84,4.04-.09,8,.27,11.38,2.66,4.74,3.35,9.24-4.45,4.54-7.77s-10.43-4.01-15.92-3.89l1.2,8.84c4.53-1.85,9.56-2.72,12.93-6.58s3.18-9.14,1.88-13.62c-2.63-9.06-14.31-12.46-18.46-2.63-2.25,5.33,6.46,7.66,8.68,2.39h0Z"/>
    <path class="cls-1" d="M296.43,59.68c-.52,2.54-.9,5.11-1.14,7.69s-.62,5.23.76,7.43c1.46,2.33,4.09,2.46,6.57,2.62,2.83.18,5.65.13,8.47-.06,2.42-.17,4.5-1.95,4.5-4.5,0-2.31-2.06-4.67-4.5-4.5-1.72.12-3.45.19-5.18.17-.79,0-1.57-.03-2.35-.06-.42-.02-2.8-.5-1.35.18l1.61,1.61-.31-.55.61,2.27c-.23-3.28.33-6.7.98-9.9,1.15-5.65-7.52-8.07-8.68-2.39h0Z"/>
    <path class="cls-1" d="M308.11,61.05c-.5,7.66-.45,15.3.14,22.96.44,5.74,9.45,5.79,9,0-.59-7.66-.64-15.3-.14-22.96.38-5.78-8.63-5.76-9,0h0Z"/>
  </g>
  <g>
    <path class="cls-1" d="M45.29,239.06c-1.46-2.96-2.35-6.06-2.53-9.36-.07-1.34-.06-2.71.09-4.04.09-.75,1.29-3.9.2-3.81,5.73-.49,5.78-9.5,0-9-13.66,1.17-9.53,22.65-5.54,30.75,2.56,5.2,10.32.64,7.77-4.54h0Z"/>
    <path class="cls-1" d="M33.26,234.57c4.98.39,9.98-.22,14.73-1.75,5.49-1.77,3.14-10.46-2.39-8.68-4.08,1.31-8.07,1.76-12.34,1.43-5.78-.45-5.75,8.55,0,9h0Z"/>
    <path class="cls-1" d="M67.58,225.75c-2.23-5.45-8.42-6.92-12.94-3.01-4.29,3.72-5.81,10.51-2.18,15.19,2.82,3.63,10.12,7.06,14.54,4.88,5.14-2.54,6.39-9.47,5.66-14.52s-8.74-3.7-8.84,1.2c-.09,4.53,1.26,8.88,4.61,12.04,4.21,3.97,10.59-2.38,6.36-6.36-1.7-1.6-2.02-3.41-1.97-5.68l-8.84,1.2c.22,1.53-.67,2.46-.97,3.79-.72.67-.63.76.26.28,1.01-.22.98-.4-.11-.53-.54-.35-1.38-.41-1.97-.69-.95-.45-1.76-.82-1.78-1.9-.02-.75.67-1.16.8-1.79l.45-.44c-.84.17-1.42-.25-1.76-1.24.93,2.27,2.98,3.82,5.54,3.14,2.14-.56,4.06-3.29,3.14-5.54h0Z"/>
    <path class="cls-1" d="M75.33,222.27c-5.6,7.07-1.61,16.19,6.54,19.02,8.97,3.12,13.48-8.77,14.15-15.68l-8.84,1.2c.96,4.21,2.48,8.18,4.47,12.01,2.68,5.14,10.45.59,7.77-4.54-1.64-3.16-2.77-6.39-3.56-9.86-1.2-5.27-8.38-3.56-8.84,1.2-.15,1.52-.54,3.01-1.19,4.39-.28.61-2.16,3.06-1.48,2.86.63-.18-1.61-1.08-2.15-1.77-.43-.56-1.09-1.73-.52-2.46,3.56-4.49-2.76-10.9-6.36-6.36h0Z"/>
    <path class="cls-1" d="M98.04,216.81c1.25,6.87,2.71,13.69,4.38,20.46,1.39,5.62,10.07,3.24,8.68-2.39-1.67-6.78-3.13-13.6-4.38-20.46-1.04-5.69-9.71-3.28-8.68,2.39h0Z"/>
    <path class="cls-1" d="M109.24,215.26c.56,6.59,1.11,13.18,1.67,19.77.48,5.73,9.49,5.78,9,0-.56-6.59-1.11-13.18-1.67-19.77-.48-5.73-9.49-5.78-9,0h0Z"/>
    <path class="cls-1" d="M120.64,231.22c2.61-3.02,5.23-6.05,7.84-9.07,1.59-1.84,1.81-4.56,0-6.36-1.62-1.62-4.77-1.85-6.36,0l-7.84,9.07c-1.59,1.84-1.81,4.56,0,6.36,1.62,1.62,4.77,1.85,6.36,0h0Z"/>
    <path class="cls-1" d="M119.72,231.13c1.96.22,5.76.46,6.48,2.74,1.73,5.51,10.42,3.15,8.68-2.39-2.16-6.86-8.76-8.62-15.16-9.35-2.42-.28-4.5,2.27-4.5,4.5,0,2.66,2.07,4.22,4.5,4.5h0Z"/>
    <path class="cls-1" d="M132.04,221.63c1.58,3.52,2.84,7.13,3.89,10.83,1.45,5.09,8.43,3.73,8.84-1.2.21-2.46-.09-4.81-.42-7.24-.12-.86-.56-4.96-.46-5.02.92-.61,3.87.53,4.52,1.18,1.65,1.63,1.95,5.15,1.99,7.28.1,5.79,9.1,5.8,9,0-.08-4.46-1.16-9.16-3.9-12.79s-7.2-4.76-11.4-4.66-7.69,2.63-8.77,6.74c-1.25,4.76.84,9.7.43,14.52l8.84-1.2c-1.27-4.46-2.9-8.75-4.8-12.98-2.37-5.27-10.13-.7-7.77,4.54h0Z"/>
    <path class="cls-1" d="M163.12,225.29c6.62-.54,17.09-.45,17.47-9.46.31-7.31-7.37-12.29-14.04-9.99-7.03,2.42-10.37,10.68-5.92,16.84,4.7,6.52,12.88,7.47,20.31,7.72,5.79.19,5.79-8.81,0-9-2.29-.08-15.03-.63-13.23-5.57.42-1.15,4.15-2.61,3.92-.47-.05.43-7.75.86-8.51.92-5.73.46-5.78,9.47,0,9h0Z"/>
    <path class="cls-1" d="M182.66,213.67c1.54,3.84,3.08,7.68,4.62,11.52,2.14,5.34,9.73,3.39,8.68-2.39-.47-2.57-.66-5.14-.59-7.75.02-.84.53-2.65.24-3.36.19-.9-.15-.59-1.03.93.69-.06,1.38-.02,2.05.15,5.66,1.12,8.08-7.55,2.39-8.68-4.64-.92-10.58-.64-12.04,4.84-1.37,5.13-.63,11.15.3,16.27l8.68-2.39c-1.54-3.84-3.08-7.68-4.62-11.52-.91-2.27-3-3.81-5.54-3.14-2.15.57-4.05,3.28-3.14,5.54h0Z"/>
    <path class="cls-1" d="M224.42,199.56c-7.5-9.7-23.42,3.34-17.68,13,2.59,4.36,8.55,6.38,13.37,5.26,5.89-1.36,8.71-6.32,9.8-11.9h-8.68c1.01,6.02,2.02,12.05,3.03,18.07.96,5.7,9.63,3.28,8.68-2.39-1.01-6.02-2.02-12.05-3.03-18.07-.73-4.35-7.85-4.24-8.68,0-.49,2.53-1.42,6.8-5.03,5.41-3.08-1.19.47-4.82,1.86-3.02,3.54,4.58,9.86-1.84,6.36-6.36h0Z"/>
    <path class="cls-1" d="M242.03,197.71c-6.2,2.24-9.77,7.88-9.29,14.49.4,5.53,3.64,12.17,9.29,13.94,6.43,2.01,12.22-1.91,13.94-7.97,1.94-6.85.57-14.11-4.49-19.22-4.08-4.12-10.45,2.24-6.36,6.36,2,2.02,2.84,4.51,2.72,7.35-.09,1.95-.18,5.28-2.74,4.83-4.12-.73-4.71-9.64-.67-11.1,5.41-1.95,3.07-10.65-2.39-8.68h0Z"/>
    <path class="cls-1" d="M270.19,199.87c-4.93-12.25-21.71-3.88-16.72,7.73,2.21,5.13,8.11,8.74,13.64,6.8s9.33-7.4,7.39-13.08c-1.59-4.65-8.88-4.09-8.84,1.2.06,6.93,1.28,13.66,3.8,20.12,2.08,5.34,10.79,3.02,8.68-2.39-2.25-5.76-3.43-11.54-3.48-17.73l-8.84,1.2c.65,1.89-2.55,2.26-3.56,1.02-.86-1.06-.32-1.37-.76-2.48,2.14,5.31,10.85,2.99,8.68-2.39h0Z"/>
    <path class="cls-1" d="M1.83,224.54c1.06,6.99,1.65,14.02,1.88,21.09.19,5.78,9.19,5.8,9,0-.26-7.88-1.02-15.69-2.21-23.48-.87-5.71-9.54-3.28-8.68,2.39h0Z"/>
    <path class="cls-1" d="M14.44,240.75c3.61-3.97,6.73-8.34,9.2-13.1,2.67-5.13-5.1-9.69-7.77-4.54-2.13,4.1-4.69,7.87-7.79,11.28-3.89,4.28,2.46,10.66,6.36,6.36h0Z"/>
    <path class="cls-1" d="M11.87,241.24c4.45.65,9.04,1.18,11.98,4.93,1.5,1.91,4.79,1.57,6.36,0,1.89-1.89,1.51-4.45,0-6.36-3.87-4.94-10.06-6.38-15.96-7.24-2.4-.35-4.84.6-5.54,3.14-.58,2.12.72,5.18,3.14,5.54h0Z"/>
    <path class="cls-1" d="M303.69,199.25c-7.19-8.32-20.85-.53-16.66,9.94s17.58,7.08,20.52-2.07l-8.84-1.2c-.55,5.77,4.48,10.66,10.26,9.94,5.3-.66,9.16-5.53,9.25-10.78.23-13.23-18.19-20.93-29.27-18.34-13.08,3.05-11.91,20.51-5.12,29s21.46,16.94,31.57,8.31c4.41-3.77-1.98-10.11-6.36-6.36-3.85,3.29-9.43-.45-12.78-2.77-4.46-3.09-8.11-6.99-8.41-12.67-.12-2.2.09-5,1.97-6.3,2.13-1.47,5.74-.78,8.06-.17s4.53,1.61,6.52,2.86c1.35.85,2.72,1.79,3.61,3.15.64.61.94,1.37.9,2.28.74,1.31.34,1.93-1.18,1.85.5-5.25-7.36-5.82-8.84-1.2-.25,1.37-.92,1.95-2.03,1.75-1.32.18-1.16-.1.48-.86,3.8,4.39,10.14-2,6.36-6.36h0Z"/>
    <path class="cls-1" d="M96.45,255.19c-4.78-.97-9.88-.81-13.18,3.29s-2.05,9.25,1.5,12.7c3.27,3.18,8.46,5.97,12.99,3.83s6.73-8.49,6.95-13.22l-8.84,1.2c.83,3.78,1.33,7.58,1.36,11.46,0,.92.3,5.36-.25,5.63-.75.37-3.36-.95-4.03-1.19-5.48-1.91-7.84,6.78-2.39,8.68,5.75,2,12.83,2.82,14.91-4.44s.61-15.56-.92-22.53c-1.13-5.13-8.61-3.7-8.84,1.2-.05,1.04-.31,2.55-.95,3.41-1.01,1.38-.56,1.38-2.29.64-3.66-1.55-1.02-2.5,1.58-1.97,5.65,1.15,8.07-7.52,2.39-8.68h0Z"/>
    <path class="cls-1" d="M107.44,261.66c.5,3.6,1.59,6.79,3.13,10.07,1.97,4.18,8.37,1.94,8.39-2.27,0-1.77-.21-3.83.15-5.56.24-.54.12-.93-.37-1.16.73.56,1.39,1.19,1.98,1.91l8.84,1.2c.29-3.11,3.91-6.56,4.52-1.88.29,2.23.34,4.39.83,6.6,1.25,5.65,9.93,3.26,8.68-2.39-1.44-6.52-.76-14.88-9.54-15.98-8.16-1.03-12.82,6.56-13.49,13.65-.47,4.99,8.11,6.22,8.84,1.2.92-6.31-4.23-13.76-11.22-13.48-8.36.34-8.19,9.72-8.21,15.9l8.39-2.27c-1.2-2.54-1.84-5.15-2.23-7.92-.8-5.71-9.47-3.28-8.68,2.39h0Z"/>
    <path class="cls-1" d="M160.29,253.17c-2.73-3.22-9.21-4.92-12.91-2.46-4.3,2.85-5.65,9.89-3.77,14.42s6.49,7.3,11.24,6.06c2.35-.61,4.35-1.99,5.83-3.9,1.81-2.33,2.06-4.9,3.12-7.52l-3.14,3.14.52-.11-3.47-.45c.17.1,1.24,2.44,1.3,2.56.62,1.14,1.18,2.3,1.73,3.47,2.48,5.23,10.24.67,7.77-4.54-1.33-2.81-2.77-6.59-5.28-8.59-2.64-2.1-6.36-1.44-7.9,1.6-.54,1.06-1.1,6.22-2.97,5.53-1.1-.4-.47-2.49-.33-3.17.68-1.08.75-1.34.21-.8-.42.23-.39.34.09.32.79.26,1,.12,1.59.82,3.75,4.43,10.08-1.97,6.36-6.36h0Z"/>
    <path class="cls-1" d="M167.69,256.04c.41,3.64.75,7.6,1.87,11.12.66,2.08,2.35,3.8,4.68,3.8s3.76-1.55,4.59-3.55c.62-1.5-.18-3.27-1.16-4.38l-.1-.11c-1.6-1.83-4.72-1.64-6.36,0-1.81,1.81-1.61,4.53,0,6.36l.1.11-1.16-4.38-.07.18,3.14-3.14-.18.06,4.38,1.16-.23-.19,1.16,1.99c-1.01-2.8-1.33-6.08-1.66-9.03-.27-2.42-1.88-4.5-4.5-4.5-2.22,0-4.77,2.07-4.5,4.5h0Z"/>
    <path class="cls-1" d="M169.03,247.92c5.79,0,5.8-9,0-9s-5.8,9,0,9h0Z"/>
    <path class="cls-1" d="M177.28,242.7c-.33,7.58,3.78,15.92,6.04,23.02,1.75,5.5,10.44,3.15,8.68-2.39-1.14-3.58-2.27-7.15-3.41-10.73-1.02-3.2-2.45-6.5-2.31-9.9.25-5.79-8.75-5.78-9,0h0Z"/>
    <path class="cls-1" d="M197.26,266.24c5.79,0,5.8-9,0-9s-5.8,9,0,9h0Z"/>
    <path class="cls-1" d="M220.34,241.48c-8.09-4.82-17.28,3.57-14.42,12.18,2.58,7.77,13.25,11.25,19.14,4.89,3.93-4.24-2.42-10.62-6.36-6.36-1.19,1.29-3.19.61-4-.83-.53-.93-.28-2.93,1.1-2.11,4.99,2.97,9.52-4.81,4.54-7.77h0Z"/>
    <path class="cls-1" d="M235.61,238c-5.51-2.31-10.92,3.41-11.94,8.43-1.18,5.82,4.2,10.59,9.43,11.78s11.42-1.44,12.99-6.99-2.53-10.38-7.41-12.77c-5.18-2.53-9.75,5.23-4.54,7.77,1.24.6,5.44,2.97,1.85,3.33-.92.09-3.24-.69-3.52-1.67.1.34.29-.25.34-.37.19-.37.43-.7.73-1-.14-.12-.24-.06-.32.17,2.24.94,4.95-1.01,5.54-3.14.71-2.6-.89-4.59-3.14-5.54h0Z"/>
    <path class="cls-1" d="M246.87,239.85c.91,3.74,1.95,7.42,3.14,11.07l8.68-2.39c-.38-.92-.69-1.87-.94-2.84-.73-2.07-.34-2.58,1.17-1.52.67,4.97,9.35,3.85,8.84-1.2-.13-1.28-.31-2.59-.25-3.87l-1.45.27c1.22-.17,2.43-.12,3.62.16,1.89.5,3.02.98,3.49,2.83.36,1.42.1,3.44.22,4.89.49,5.73,9.49,5.78,9,0-.34-4.07.26-8.47-2.19-12.03-2.18-3.17-5.72-4.02-9.31-4.57-3.25-.5-7.27-.81-9.96,1.47-3.07,2.59-2.52,7.27-2.15,10.86l8.84-1.2c-.82-6.13-7.27-9.85-12.98-7.38-6.62,2.86-6.78,10.67-4.61,16.53,1.98,5.35,10.49,3.19,8.68-2.39-1.19-3.66-2.23-7.34-3.14-11.07-1.37-5.62-10.05-3.24-8.68,2.39h0Z"/>
  </g>
  <g>
    <path class="cls-1" d="M18.36,153.52c-2.36-2.66-4.15-5.67-5.21-9.07-.18-.59-1.93-10.4-.2-10.03,5.65,1.2,8.06-7.47,2.39-8.68-7.8-1.66-12.09,4.89-12.21,11.98-.14,8.29,3.45,16.09,8.86,22.17,3.86,4.34,10.2-2.05,6.36-6.36h0Z"/>
    <path class="cls-1" d="M5.67,152.67c3.78-.58,7.55-1.16,11.33-1.75,2.4-.37,3.73-3.39,3.14-5.54-.71-2.57-3.12-3.51-5.54-3.14l-11.33,1.75c-2.4.37-3.73,3.39-3.14,5.54.71,2.57,3.12,3.51,5.54,3.14h0Z"/>
    <path class="cls-1" d="M38,140.56c-1.79-4.76-9.4-7.66-14.1-5.38-5,2.43-5.3,9.4-2.85,13.69s8.04,8.39,13.19,8.16c6.23-.28,9.28-6,11.06-11.19h-8.68c.79,2.03,1.58,4.07,2.37,6.1,2.08,5.34,10.78,3.02,8.68-2.39-.79-2.03-1.58-4.07-2.37-6.1-1.6-4.12-7.17-4.4-8.68,0-.41,1.19-.81,2.98-1.78,3.87-1.36,1.23-2.61.23-3.92-.77-.53-.41-1.09-.85-1.5-1.39-.23-.3-.68-1.54-.86-1.67.06-.61-.21-.69-.81-.24-.91.14-.98.25-.23.33.62.56,2.38.92,1.81-.62,2.02,5.37,10.72,3.04,8.68-2.39h0Z"/>
    <path class="cls-1" d="M45.78,135.6c-1.27,6.91,2.4,15.49,9.69,17.53,9.03,2.53,12.07-6.78,12.68-13.78l-8.84,1.2c1.52,4.29,3.47,8.31,6.02,12.08,3.23,4.77,11.03.27,7.77-4.54-2.12-3.13-3.85-6.37-5.12-9.93-1.73-4.87-8.39-3.91-8.84,1.2-.1,1.1-.2,2.91-.73,3.92-.85,1.62.11,1.34-1.31.76-1.84-.75-2.96-4.3-2.64-6.03,1.04-5.66-7.64-8.09-8.68-2.39h0Z"/>
    <path class="cls-1" d="M72.61,127.58c.37,6.82,1.36,13.56,3.03,20.18,1.41,5.61,10.09,3.24,8.68-2.39s-2.38-11.75-2.71-17.79-9.31-5.8-9,0h0Z"/>
    <path class="cls-1" d="M83.5,123.88c.81,6.81,1.89,13.56,3.34,20.26,1.22,5.66,9.9,3.26,8.68-2.39s-2.31-11.86-3.02-17.87c-.67-5.68-9.68-5.75-9,0h0Z"/>
    <path class="cls-1" d="M95.41,136.41c3.34-2.82,6.67-5.64,10.01-8.46,1.86-1.57,1.62-4.75,0-6.36-1.84-1.84-4.5-1.57-6.36,0-3.34,2.82-6.67,5.64-10.01,8.46-1.86,1.57-1.62,4.75,0,6.36,1.84,1.84,4.5,1.57,6.36,0h0Z"/>
    <path class="cls-1" d="M88.93,134.6c1.28,3.31,3.62,4.12,6.75,5.1,2.13.66,3.89,1.55,5.28,3.33,1.5,1.92,4.79,1.57,6.36,0,1.89-1.89,1.5-4.44,0-6.36-1.41-1.81-3.35-3.2-5.42-4.17-1.04-.48-2.12-.92-3.21-1.28-.52-.17-1.04-.33-1.56-.48l-.62-.17c-.75-.25-.71-.21.13.13l1.16,1.99-.18-.47c-.87-2.27-3.02-3.83-5.54-3.14-2.17.6-4.02,3.26-3.14,5.54h0Z"/>
    <path class="cls-1" d="M104.7,132.95c1.9,3.25,3.29,6.58,4.27,10.22,1.12,4.17,7.69,4.41,8.68,0,.56-2.52.11-6.97,1.49-9.14.27-1.13.39-1.37.35-.72.78.19,1.49.53,2.11,1.03,1.26,1.1,1.68,2.57,1.32,4.17-1.26,5.64,7.41,8.05,8.68,2.39,1.81-8.09-3.61-15.97-12.07-16.67-9.46-.78-9.11,10.05-10.56,16.53h8.68c-1.17-4.35-2.9-8.48-5.18-12.37-2.92-5-10.71-.47-7.77,4.54h0Z"/>
    <path class="cls-1" d="M144.42,133.97c5.46-2.38,10.57-9.14,5.18-14.54-2.36-2.36-5.98-2.77-9.11-3.21-3.37-.48-6.49-.51-8.66,2.53-3.47,4.85-4.32,13.39-.48,18.2s12.59,7.08,17.78,4.01.46-10.73-4.54-7.77c-.97.57-4.65-.59-5.49-1.24-1.81-1.4-1.25-3.6-.72-5.56.16-.57.34-1.13.53-1.7.41-.9.13-.83-.84.21.99.48,2.59.35,3.7.6.56.09,1.11.24,1.64.45l-.59-1.32c-.22-.07-2.56,1.4-2.94,1.57-5.3,2.31-.72,10.07,4.54,7.77h0Z"/>
    <path class="cls-1" d="M152.68,126.53l3.59,12.48c1.6,5.58,10,3.25,8.68-2.39-.48-2.07-.92-4.15-1.2-6.25-.08-.59.05-2.8-.29-3.06.24.19-1.7.33-1.7.33,2.22.98,4.83.65,6.16-1.61,1.12-1.92.62-5.17-1.61-6.16-4.09-1.81-8.87-.85-11.01,3.39-1.13,2.25-.84,4.72-.55,7.12.35,2.91.85,5.79,1.52,8.64l8.68-2.39-3.59-12.48c-1.6-5.56-10.28-3.19-8.68,2.39h0Z"/>
    <path class="cls-1" d="M174.07,116.19c.28,6.69.47,13.38.56,20.07.08,5.79,9.08,5.8,9,0-.09-6.69-.27-13.38-.56-20.07-.24-5.77-9.25-5.8-9,0h0Z"/>
    <path class="cls-1" d="M184.05,130.4c3.62-2.46,7.28-4.86,10.97-7.21,4.87-3.1.36-10.89-4.54-7.77-3.69,2.35-7.35,4.75-10.97,7.21-2.01,1.36-2.9,3.96-1.61,6.16,1.16,1.99,4.14,2.99,6.16,1.61h0Z"/>
    <path class="cls-1" d="M183.53,132.31c3.86,2.46,7.56,5.12,11.07,8.05,1.87,1.55,4.54,1.83,6.36,0,1.6-1.6,1.88-4.8,0-6.36-4.1-3.42-8.39-6.59-12.89-9.46-4.9-3.12-9.42,4.66-4.54,7.77h0Z"/>
    <path class="cls-1" d="M207.34,122.84c.12-.58.35-2.8,1.18-2.96,1.18-.22,2.04,1.95,2.35,2.71.96,2.4.36,4.34-2.52,4.29l1.2,8.84c3.57-1.22,6.99-1.1,10.33.72,5.09,2.76,9.64-5.01,4.54-7.77-5.39-2.93-11.42-3.61-17.27-1.62-4.71,1.6-4.05,8.76,1.2,8.84,4.22.06,8.4-1.95,10.6-5.66,2.46-4.13,1.48-9.3-.83-13.28s-6.4-6.6-10.97-5.91c-4.82.73-7.55,4.93-8.49,9.41-1.19,5.65,7.49,8.07,8.68,2.39h0Z"/>
    <path class="cls-1" d="M156.36,168.01c2.24,3.92,4.71,7.68,7.44,11.28,1.95,2.57,5.95,3.21,7.77,0,2.32-4.09,4.25-8.37,5.86-12.8.83-2.28-.93-4.93-3.14-5.54-2.5-.69-4.7.85-5.54,3.14-1.35,3.7-3.01,7.22-4.95,10.65h7.77c-2.73-3.6-5.21-7.35-7.44-11.28-2.87-5.03-10.65-.5-7.77,4.54h0Z"/>
    <path class="cls-1" d="M191.04,160.8c-6.5-5.03-13.87.1-14.69,7.53s7.11,11.98,13.8,11.92c5.79-.05,5.8-9.05,0-9-1.46.01-3.95-.29-4.85-1.67-.21-.32.06.46-.07-.05-.14-.56.37-1.03.36-1.55,0-.11.34-.34.31-.43.23.76-2.49-1.37-1.22-.39,1.92,1.49,4.49,1.87,6.36,0,1.55-1.55,1.93-4.87,0-6.36h0Z"/>
    <path class="cls-1" d="M193.27,160.84c-.68,7.5,1.85,17.71,11,18.38,8.59.62,12.29-11.42,11.62-18.18-2.95.4-5.89.8-8.84,1.2,1.06,4.82,2.64,9.39,4.57,13.92.96,2.25,4.23,2.71,6.16,1.61,2.33-1.32,2.56-3.94,1.61-6.16-1.62-3.79-2.78-7.75-3.67-11.77-1.07-4.87-9.35-3.9-8.84,1.2.19,1.88.19,3.67-.42,5.49-.3.89-.69,1.71-1.2,2.49-.18.33-.39.63-.65.9-.46.47-.48.55-.05.24-3.2-.18-2.45-7.63-2.29-9.32.53-5.77-8.48-5.73-9,0h0Z"/>
    <path class="cls-1" d="M225.95,177.83c5.79,0,5.8-9,0-9s-5.8,9,0,9h0Z"/>
    <path class="cls-1" d="M241.77,168.18c5.34-1.27,18.48-3.12,15.56-11.53-1.23-3.53-5.08-5.57-8.42-6.67-3.54-1.16-6.96-.21-9.6,2.38-4.58,4.5-5.15,12.35-1.59,17.61,4.14,6.12,13.4,6.07,19.56,3.46,2.26-.96,2.71-4.24,1.61-6.16-1.33-2.33-3.93-2.56-6.16-1.61-1.47.62-5.69.86-7.05-.1-1.57-1.1-1.59-4.04-.87-5.6.53-1.13.88-1.29,1.7-1.3.77.32,1.52.7,2.24,1.13,1.9-2.92,1.86-3.88-.1-2.88-1.41.05-3.23,1.02-4.61,1.4-1.55.43-3.1.82-4.66,1.19-5.63,1.34-3.25,10.02,2.39,8.68h0Z"/>
    <path class="cls-1" d="M276.48,150.32c-4.24-4.88-11.96-4.9-15.87.42s-1.56,12.67,3.16,16.7,12.28,4.24,16.17-1.09c4.7-6.44,2.5-15.44,2.32-22.77l-8.84,1.2c2.35,7.13,5.13,14.08,8.28,20.89,2.43,5.25,10.19.69,7.77-4.54-2.83-6.11-5.26-12.35-7.37-18.74-1.54-4.65-8.97-4.08-8.84,1.2.11,4.6,2.16,11.82.03,16.11-1.11,2.23-2.94,1.96-4.47.07-1.42-1.76-1.26-6.03,1.3-3.08,3.81,4.38,10.15-2.01,6.36-6.36h0Z"/>
    <path class="cls-1" d="M288.54,147.92c.05,7.54,2.6,17.49,12.04,17.36s11.05-10.3,10.24-17.42c-2.95.4-5.89.8-8.84,1.2,1.61,4.25,3.57,8.26,6.06,12.06,3.17,4.82,10.96.32,7.77-4.54-2.06-3.14-3.82-6.4-5.15-9.91-1.64-4.33-9.46-4.25-8.84,1.2.18,1.57,1.34,8.12-1.4,8.41-3.11.33-2.86-6.66-2.87-8.34-.04-5.79-9.04-5.8-9,0h0Z"/>
    <path class="cls-1" d="M255.76,111.91c-8.36-2.49-19.96,3.79-14.18,13.56,5.71,9.67,18,3.64,18.84-5.93h-9c.68,5.74,4.25,13.11,11.42,10.35,5.31-2.04,7.7-8.2,7.3-13.52-.96-12.77-17.16-20.26-28.51-16.35-11.91,4.1-17.98,21.45-10.31,31.69,3.57,4.76,10,7.35,15.55,8.99,6.44,1.91,13.06,1.26,18.08-3.46,4.22-3.98-2.15-10.34-6.36-6.36-4.42,4.17-12.25.62-16.72-1.91-5.92-3.36-6.08-10.54-2.57-15.89s9.77-5.89,15.52-3.5c2.45,1.02,4.93,2.77,5.9,5.34.55,1.46.49,2.73.34,4.24-.11,1.11-.24,3.64-.63.38-.67-5.7-8.49-5.86-9,0-.23,2.61-2.74,1.4-1.89.85,1.09-.7,2.73-.13,3.84.2,5.56,1.66,7.94-7.03,2.39-8.68h0Z"/>
  </g>
  <g>
    <path class="cls-1" d="M24.65,11.43c-4.6-3.63-10.26-4.3-15.31-.99S2.07,19.95,1.25,25.87s-1.96,13.09,2.58,17.82c4.07,4.24,11.11,6.06,16.64,4.25s3.13-10.49-2.39-8.68c-2.26.74-5.49.32-7.26-1.44-1.98-1.96-1.24-5.72-.99-8.28s.5-5.15,1.44-7.48,4.01-6.63,7.01-4.26c4.5,3.55,10.91-2.77,6.36-6.36h0Z"/>
    <path class="cls-1" d="M33.98,10.7c-7.88,4.01-8.08,15.16-8.25,22.82-.09,4.02.33,7.34,3.93,9.6s8.39,3.97,12.86,3.5c18.85-1.95,12.68-32.62-1.13-37.51-5.47-1.94-7.82,6.76-2.39,8.68s10.44,20.55,1.19,19.85c-1.33-.1-5.43-.99-5.99-2.3.63-.8.82-1.72.54-2.77.03-.94.08-1.87.16-2.81.24-3.38.1-9.52,3.62-11.31,5.16-2.63.61-10.39-4.54-7.77h0Z"/>
    <path class="cls-1" d="M65.83,42.18c-.78-4.41-1.38-8.83-1.74-13.29-.16-1.94-.27-3.89-.35-5.84-.04-.97-.07-1.95-.09-2.92.12-2.34.02-2.59-.28-.76l-3.89,2.23c4.18.06,7.59,10.36,9.18,13.29,2.76,5.09,6.27,8.93,11.69,11.1,2.1.84,5.16-.94,5.54-3.14,1.44-8.52-1.88-17.55-1.97-26.2-.06-5.79-9.06-5.8-9,0,.04,3.72.28,7.39.77,11.08.54,4.05,2.21,8.69,1.53,12.74l5.54-3.14c-5.35-2.14-7.26-9.28-9.8-13.87-2.36-4.27-6.14-9.44-11.2-10.66-6.58-1.58-7.2,4.56-7.05,9.3.24,7.55,1.13,15.06,2.44,22.5,1,5.69,9.68,3.28,8.68-2.39h0Z"/>
    <path class="cls-1" d="M88.82,16.74c2.29,9.12,4.66,18.22,7.13,27.29.93,3.41,6.63,4.78,8.22,1.07l.44-1.03c2.27-5.26-5.48-9.85-7.77-4.54l-.44,1.03,8.22,1.07c-2.47-9.07-4.84-18.17-7.13-27.29-1.41-5.61-10.09-3.24-8.68,2.39h0Z"/>
    <path class="cls-1" d="M89.34,20.88c4.76.14,9.5-.38,14.14-1.47,5.64-1.33,3.25-10.01-2.39-8.68-3.89.92-7.75,1.27-11.74,1.15-5.79-.17-5.79,8.83,0,9h0Z"/>
    <path class="cls-1" d="M117.36,46.48c.42-10.73,2.17-21.2,5.22-31.5l-8.22,1.07c6.19,8.27,11.42,17.2,15.36,26.75,2.18,5.28,10.89,2.97,8.68-2.39-4.26-10.32-9.58-19.96-16.27-28.9-2.25-3-7.05-2.91-8.22,1.07-3.26,11.04-5.09,22.39-5.54,33.89-.22,5.79,8.78,5.78,9,0h0Z"/>
    <path class="cls-1" d="M115.59,36.33h12.98c5.79,0,5.8-9,0-9h-12.98c-5.79,0-5.8,9,0,9h0Z"/>
    <path class="cls-1" d="M150.68,8.71c-6.21-.45-11.39-1.02-15.4,4.58-3.51,4.91-4.29,11.58-2.26,17.23,1.76,4.88,5.67,9.08,10.5,11.01,6.46,2.57,12.22.01,17.08-4.44,4.28-3.92-2.1-10.27-6.36-6.36-2.54,2.33-5.11,3.76-8.47,1.94-2.15-1.17-3.85-3.5-4.52-5.83-.71-2.46-.48-5.61.99-7.76,1.92-2.81,5.42-1.56,8.43-1.35,5.78.42,5.75-8.58,0-9h0Z"/>
    <path class="cls-1" d="M163.53,12.9c1.78,8.77,2.47,18.95,6.37,27.06,2.51,5.22,10.27.66,7.77-4.54-1.71-3.56-2.04-8.08-2.83-11.93-.88-4.33-1.76-8.65-2.63-12.98-1.15-5.67-9.83-3.27-8.68,2.39h0Z"/>
    <path class="cls-1" d="M160.6,16.54c5.06.53,10.12.66,15.2.39,5.76-.3,5.8-9.31,0-9-5.08.27-10.14.14-15.2-.39-2.44-.25-4.48,2.25-4.5,4.5-.03,2.64,2.09,4.25,4.5,4.5h0Z"/>
  </g>
  <path class="cls-1" d="M213.88,24.2c-2.21-3.73-5.72-8.55-10.32-9.18s-7.66,3.15-7.5,7.42,3.55,7.15,6.85,9.52,8.57,7.07,12.94,5.49c6.49-2.35,16.49-15.61,9.97-22.13-6.9-6.9-18.96,5.13-18.87,12.21.07,5.79,9.07,5.8,9,0-.02-1.72,3.82-5.29,5.49-4.69l-3.14-3.14c1.41,3.62-3.56,8.19-6.45,9.76l3.47-.45c-2.88-.76-6.12-3.37-8.45-5.23-.72-.57-4.32-4.31-4.31.52,0,.58,3.11,3.7,3.56,4.46,2.95,4.98,10.74.45,7.77-4.54h0Z"/>
</svg>